<svg width="80" height="80" viewBox="0 0 80 80" fill="none" xmlns="http://www.w3.org/2000/svg">
<path d="M40.0002 27.9746C47.3793 27.9746 53.3612 21.9927 53.3612 14.6135C53.3612 7.23441 47.3793 1.25244 40.0002 1.25244C32.621 1.25244 26.6391 7.23441 26.6391 14.6135C26.6391 21.9927 32.621 27.9746 40.0002 27.9746Z" fill="#FFDC64"/>
<path d="M40.0002 23.9664C45.1656 23.9664 49.353 19.779 49.353 14.6136C49.353 9.44814 45.1656 5.26074 40.0002 5.26074C34.8347 5.26074 30.6473 9.44814 30.6473 14.6136C30.6473 19.779 34.8347 23.9664 40.0002 23.9664Z" fill="#FFF082"/>
<path d="M24.8573 30.647C24.1644 30.647 23.4923 30.7298 22.8342 30.8509C22.7131 31.5088 22.6303 32.181 22.6303 32.874C22.6303 39.0234 27.6153 44.0084 33.7647 44.0084C34.4577 44.0084 35.1297 43.9256 35.7878 43.8045C35.9089 43.1465 35.9917 42.4743 35.9917 41.7813C35.9917 35.632 31.0067 30.647 24.8573 30.647Z" fill="#FFDC64"/>
<path d="M55.1428 30.647C55.8358 30.647 56.5078 30.7298 57.1659 30.8509C57.287 31.5088 57.3698 32.181 57.3698 32.874C57.3698 39.0234 52.3848 44.0084 46.2355 44.0084C45.5425 44.0084 44.8705 43.9256 44.2123 43.8045C44.0913 43.1465 44.0084 42.4743 44.0084 41.7813C44.0084 35.632 48.9934 30.647 55.1428 30.647Z" fill="#FFDC64"/>
<path d="M56.0334 52.0249H23.9667C23.2289 52.0249 22.6306 52.6232 22.6306 53.361V56.0332C22.6306 56.771 23.2289 57.3693 23.9667 57.3693H25.3028L27.6825 76.4063C27.8497 77.7437 28.9864 78.7472 30.3342 78.7472H49.6661C51.0139 78.7472 52.1506 77.7437 52.3178 76.4063L54.6975 57.3693H56.0336C56.7714 57.3693 57.3697 56.771 57.3697 56.0332V53.361C57.3695 52.6232 56.7714 52.0249 56.0334 52.0249Z" fill="#69ABE6"/>
<path d="M54.6973 57.3698H37.3278H35.9917C35.2539 57.3698 34.6556 56.7715 34.6556 56.0337V53.3615C34.6556 52.6237 35.2539 52.0254 35.9917 52.0254H23.9667C23.2289 52.0254 22.6306 52.6237 22.6306 53.3615V56.0337C22.6306 56.7715 23.2289 57.3698 23.9667 57.3698H25.3028L27.6825 76.4068C27.8497 77.7441 28.9864 78.7477 30.3342 78.7477H42.3592C41.0114 78.7477 39.8747 77.7441 39.7075 76.4068L37.8289 61.3782H54.1964L54.6973 57.3698Z" fill="#4099F2"/>
<path d="M56.0334 50.7725H41.2527V48.5355L44.6458 45.1423C45.2084 45.2209 45.7339 45.2608 46.2355 45.2608C53.0655 45.2609 58.6223 39.7042 58.6223 32.8739C58.6223 32.1811 58.5489 31.4452 58.3977 30.6242C58.3036 30.113 57.9036 29.713 57.3923 29.6189C56.5713 29.4678 55.8355 29.3942 55.1427 29.3942C48.3127 29.3944 42.7558 34.9511 42.7558 41.7814C42.7558 42.283 42.7956 42.8084 42.8742 43.3711L41.2527 44.9927V29.1734C48.7264 28.5359 54.6138 22.25 54.6138 14.6139C54.6139 6.55562 48.0583 0 40.0002 0C31.942 0 25.3864 6.55562 25.3864 14.6138C25.3864 22.2498 31.2739 28.5358 38.7475 29.1733V44.9925L37.1259 43.3709C37.2045 42.8083 37.2444 42.2828 37.2444 41.7812C37.2444 34.9512 31.6877 29.3944 24.8573 29.3944C24.1645 29.3944 23.4286 29.4678 22.6077 29.6191C22.0964 29.7131 21.6964 30.1131 21.6023 30.6244C21.4512 31.4455 21.3777 32.1812 21.3777 32.8741C21.3778 39.7041 26.9345 45.2609 33.7648 45.2609C34.2664 45.2609 34.7919 45.2211 35.3545 45.1425L38.7475 48.5355V50.7725H23.9667C22.5392 50.7725 21.378 51.9338 21.378 53.3612V56.0334C21.378 57.4609 22.5392 58.6222 23.9667 58.6222H24.197L26.4395 76.562C26.6845 78.5219 28.3589 80 30.3341 80H49.6661C51.6414 80 53.3156 78.5219 53.5605 76.562L55.803 58.6222H56.0333C57.4608 58.6222 58.622 57.4609 58.622 56.0334V53.3612C58.6222 51.9338 57.4609 50.7725 56.0334 50.7725ZM55.1428 31.8998C55.4386 31.8998 55.7414 31.9169 56.0645 31.9523C56.1 32.2755 56.117 32.5784 56.117 32.8741C56.117 38.0412 52.1295 42.2922 47.0703 42.718L48.9025 40.8858C49.3917 40.3966 49.3917 39.6034 48.9025 39.1144C48.4133 38.6252 47.6202 38.6252 47.1311 39.1144L45.2989 40.9466C45.7245 35.8872 49.9753 31.8998 55.1428 31.8998ZM27.8916 14.6138C27.8916 7.93703 33.3234 2.50516 40.0002 2.50516C46.6769 2.50516 52.1088 7.93703 52.1088 14.6138C52.1088 21.2905 46.6769 26.7223 40.0002 26.7223C33.3234 26.7223 27.8916 21.2905 27.8916 14.6138ZM23.8831 32.8741C23.8831 32.5783 23.9002 32.2755 23.9356 31.9523C24.2587 31.9169 24.5617 31.8998 24.8573 31.8998C30.0245 31.8998 34.2755 35.8873 34.7012 40.9466L32.8691 39.1144C32.3798 38.6252 31.5867 38.6252 31.0977 39.1144C30.6084 39.6036 30.6084 40.3967 31.0977 40.8858L32.9298 42.718C27.8706 42.2923 23.8831 38.0414 23.8831 32.8741ZM51.0748 76.2513C50.9861 76.9602 50.3806 77.4948 49.6661 77.4948H30.3341C29.6195 77.4948 29.0139 76.9602 28.9253 76.2513L26.7217 58.6222H53.2786L51.0748 76.2513ZM56.117 56.0334C56.117 56.0795 56.0797 56.1169 56.0336 56.1169H23.9667C23.9206 56.1169 23.8833 56.0795 23.8833 56.0334V53.3612C23.8833 53.3152 23.9206 53.2778 23.9667 53.2778H56.0336C56.0797 53.2778 56.117 53.3152 56.117 53.3612V56.0334Z" fill="black" fill-opacity="0.4"/>
<path d="M41.3104 21.1299V20.9596C43.2998 20.5873 44.7389 19.1954 44.7389 17.487C44.7389 15.0998 42.8324 14.0965 41.3104 13.519V9.79597C42.0999 10.0547 42.5961 10.5755 42.5961 11.0585C42.5961 11.6502 43.0758 12.13 43.6676 12.13C44.2592 12.13 44.739 11.6503 44.739 11.0585C44.739 9.34999 43.2999 7.95817 41.3105 7.58596V7.4157C41.3105 6.82404 40.8309 6.34424 40.2391 6.34424C39.6474 6.34424 39.1676 6.8239 39.1676 7.4157V7.58596C37.1783 7.95804 35.7391 9.34999 35.7391 11.0585C35.7391 13.4458 37.6456 14.4491 39.1676 15.0266V18.7496C38.3782 18.4909 37.8819 17.97 37.8819 17.487C37.8819 16.8954 37.4023 16.4156 36.8105 16.4156C36.2188 16.4156 35.739 16.8952 35.739 17.487C35.739 19.1956 37.1781 20.5874 39.1675 20.9596V21.1299C39.1675 21.7215 39.6472 22.2013 40.2389 22.2013C40.8307 22.2013 41.3104 21.7215 41.3104 21.1299ZM42.5961 17.487C42.5961 17.97 42.0999 18.4909 41.3104 18.7496V15.8568C42.3785 16.3803 42.5961 16.8374 42.5961 17.487ZM37.8819 11.0585C37.8819 10.5755 38.3782 10.0547 39.1676 9.79597V12.6889C38.0995 12.1654 37.8819 11.7082 37.8819 11.0585Z" fill="#FFB72B"/>
</svg>
